<svg xmlns="http://www.w3.org/2000/svg" viewBox="0 0 512 512" role="img" aria-label="Warframe Build Agent Ordis icon">
  <defs>
    <radialGradient id="bg" cx="50%" cy="40%" r="70%">
      <stop offset="0%" stop-color="#14202c"/>
      <stop offset="100%" stop-color="#04070c"/>
    </radialGradient>
    <radialGradient id="core" cx="50%" cy="45%" r="55%">
      <stop offset="0%" stop-color="#b8fbff"/>
      <stop offset="45%" stop-color="#4fd6e0"/>
      <stop offset="100%" stop-color="#0a3a42" stop-opacity="0.35"/>
    </radialGradient>
    <linearGradient id="facet" x1="0%" y1="0%" x2="100%" y2="100%">
      <stop offset="0%" stop-color="#d7b56d"/>
      <stop offset="50%" stop-color="#7fe7ef"/>
      <stop offset="100%" stop-color="#7a6534"/>
    </linearGradient>
  </defs>
  <rect width="512" height="512" rx="96" fill="url(#bg)"/>
  <circle cx="256" cy="256" r="168" fill="url(#core)" opacity="0.28"/>
  <polygon points="256,96 392,174 392,338 256,416 120,338 120,174" fill="#080e16" stroke="url(#facet)" stroke-width="10"/>
  <polygon points="256,96 392,174 256,256 120,174" fill="rgba(127,231,239,0.08)" stroke="#d7b56d" stroke-width="5"/>
  <polygon points="392,174 392,338 256,256" fill="rgba(215,181,109,0.1)" stroke="rgba(215,181,109,0.7)" stroke-width="4"/>
  <polygon points="120,174 256,256 120,338" fill="rgba(0,196,204,0.08)" stroke="rgba(127,231,239,0.55)" stroke-width="4"/>
  <polygon points="120,338 256,416 392,338 256,256" fill="rgba(4,8,14,0.55)" stroke="rgba(122,101,52,0.8)" stroke-width="4"/>
  <polygon points="256,164 324,232 256,300 188,232" fill="url(#core)" stroke="#7fe7ef" stroke-width="5"/>
  <circle cx="256" cy="232" r="22" fill="#e8fbff"/>
  <g stroke="#7fe7ef" stroke-width="4" fill="none" opacity="0.85">
    <path d="M214 150 L236 204 L204 248"/>
    <path d="M298 180 L272 228 L312 276"/>
    <path d="M176 300 L232 320 L258 372"/>
  </g>
  <path d="M132 200 C100 256 100 256 132 312" fill="none" stroke="#7fe7ef" stroke-width="6" stroke-linecap="round" opacity="0.55"/>
  <path d="M380 200 C412 256 412 256 380 312" fill="none" stroke="#7fe7ef" stroke-width="6" stroke-linecap="round" opacity="0.55"/>
</svg>
